<?xml version="1.0" encoding="UTF-8" standalone="yes"?>
<svg version="1.2" width="100.000000pt" height="100.000000pt" viewBox="0 0 100.000000 100.000000" preserveAspectRatio="xMidYMid meet" baseProfile="tiny-ps" xmlns="http://www.w3.org/2000/svg">
  <title>bimi-svg-tiny-12-ps</title>
  <g transform="translate(0.000000,100.000000) scale(0.100000,-0.100000)" fill="#000000" stroke="none">
    <path d="M534 990 c-26 -10 -54 -48 -54 -71 0 -12 -12 -18 -42 -22 -86 -12&#xA;-115 -87 -46 -123 44 -23 100 -13 163 30 60 42 82 45 95 14 5 -14 9 -17 9 -7&#xA;1 21 -19 39 -42 39 -11 0 -43 -14 -71 -31 -62 -39 -116 -48 -151 -25 -59 38&#xA;-9 93 75 83 47 -6 50 -5 40 13 -35 66 50 117 128 76 102 -53 107 -179 11 -243&#xA;-35 -23 -44 -25 -126 -20 l-88 6 75 -12 75 -13 -45 -17 c-25 -10 -74 -24 -110&#xA;-32 l-65 -15 67 5 c37 2 101 16 144 30 75 25 78 25 131 10 68 -20 108 -56 93&#xA;-84 -16 -31 -42 -33 -106 -10 -42 15 -92 23 -175 26 -124 6 -190 -4 -277 -39&#xA;-51 -20 -55 -20 -90 -4 l-37 17 25 -20 c118 -95 553 -88 658 9 12 12 22 28 22&#xA;36 0 25 -47 60 -105 79 l-55 17 29 33 c79 90 60 205 -42 254 -46 22 -78 25&#xA;-113 11z m98 -439 c17 -7 -5 -10 -78 -10 -56 -1 -137 -4 -180 -7 -94 -8 -93 1&#xA;2 21 72 15 213 13 256 -4z"/>
    <path d="M338 693 c6 -2 18 -2 25 0 6 3 1 5 -13 5 -14 0 -19 -2 -12 -5z"/>
    <path d="M867 553 c-9 -2 -15 -8 -12 -12 2 -5 -7 -19 -22 -32 l-26 -24 6 23&#xA;c3 12 2 20 -2 17 -4 -2 -13 -37 -21 -77 -24 -138 -77 -240 -141 -273 -17 -9&#xA;-61 -23 -98 -31 l-66 -14 67 5 c106 7 151 40 207 152 32 64 50 79 126 103 100&#xA;31 123 121 40 155 -19 8 -36 14 -37 14 -2 -1 -11 -3 -21 -6z m73 -53 c24 -24&#xA;25 -32 3 -58 -15 -17 -153 -87 -153 -78 0 35 26 116 42 133 27 29 80 31 108 3z"/>
    <path d="M253 381 c-40 -19 -63 -45 -63 -73 0 -7 6 -2 13 11 26 51 121 77 177&#xA;48 39 -20 36 -47 -15 -112 -53 -68 -57 -102 -20 -157 31 -46 113 -87 188 -95&#xA;60 -6 162 10 244 38 127 43 229 147 220 222 -3 21 -11 44 -17 52 -14 16 -50&#xA;20 -50 6 0 -5 9 -7 19 -4 13 3 21 -2 26 -16 25 -81 -73 -165 -263 -225 -167&#xA;-52 -275 -45 -344 24 -51 50 -49 73 12 149 28 34 50 69 50 77 0 30 -21 53 -58&#xA;64 -51 14 -71 12 -119 -9z"/>
    <path d="M49 251 c-36 -36 -38 -79 -6 -115 33 -38 66 -42 107 -12 63 46 79 51&#xA;103 36 20 -12 21 -12 8 3 -20 25 -61 20 -105 -13 -48 -36 -66 -37 -94 -7 -45&#xA;47 -17 116 46 118 30 0 33 2 17 9 -33 14 -45 11 -76 -19z"/>
    <path d="M781 235 c-33 -37 -39 -55 -17 -55 7 0 19 -7 26 -15 7 -8 23 -15 35&#xA;-15 24 0 53 26 41 37 -3 3 -6 1 -6 -6 0 -9 -4 -9 -14 1 -10 9 -11 15 -2 20 8&#xA;6 7 8 -2 8 -8 0 -10 8 -6 24 9 39 -20 39 -55 1z m39 1 c0 -2 -8 -10 -17 -17&#xA;-16 -13 -17 -12 -4 4 13 16 21 21 21 13z"/>
  </g>
</svg>