<?xml version="1.0" standalone="no"?>
<!DOCTYPE svg PUBLIC "-//W3C//DTD SVG 20010904//EN"
 "http://www.w3.org/TR/2001/REC-SVG-20010904/DTD/svg10.dtd">
<svg version="1.0" xmlns="http://www.w3.org/2000/svg"
 width="650.000000pt" height="650.000000pt" viewBox="0 0 650.000000 650.000000"
 preserveAspectRatio="xMidYMid meet">
<metadata>
Created by potrace 1.14, written by Peter Selinger 2001-2017
</metadata>
<g transform="translate(0.000000,650.000000) scale(0.100000,-0.100000)"
fill="#000000" stroke="none">
<path d="M3578 6480 c-1 -5 -20 -10 -40 -12 -21 -1 -38 -6 -38 -10 0 -4 -11
-8 -25 -8 -14 0 -25 -3 -25 -7 0 -11 -50 -33 -73 -33 -10 0 -16 -3 -14 -7 3
-5 -1 -13 -8 -20 -11 -10 -15 -10 -18 0 -4 9 -6 9 -6 0 -1 -7 -8 -13 -17 -13
-8 0 -13 -4 -10 -8 3 -5 -6 -19 -19 -30 -14 -12 -25 -26 -25 -32 0 -5 -7 -10
-16 -10 -8 0 -13 -4 -10 -9 4 -5 3 -11 -1 -13 -26 -11 -97 -156 -112 -228 -11
-51 -3 -190 11 -190 5 0 6 -5 2 -11 -3 -6 -16 -8 -28 -5 -89 26 -236 35 -331
21 -145 -22 -335 -92 -437 -163 -56 -39 -137 -116 -175 -167 -153 -203 -113
-439 98 -582 53 -37 169 -92 219 -105 64 -16 74 -18 145 -29 63 -10 231 -7
267 6 7 2 27 6 43 8 78 12 350 130 385 167 3 3 30 21 60 40 60 37 131 90 141
104 4 5 12 5 19 1 9 -5 11 -4 6 3 -4 7 -1 12 9 12 9 0 28 14 42 30 13 17 31
30 39 30 8 0 14 4 14 8 0 5 12 15 28 23 15 8 29 17 32 20 9 9 122 75 180 104
103 52 220 82 220 57 0 -4 10 -8 22 -9 22 -2 40 -21 32 -35 -3 -4 4 -8 14 -8
31 0 50 -53 47 -128 -2 -40 -9 -68 -17 -73 -7 -5 -10 -9 -5 -9 4 0 0 -11 -9
-25 -15 -23 -13 -30 9 -26 4 0 7 -4 7 -9 0 -6 5 -10 12 -10 6 0 8 3 5 7 -4 3
7 19 23 35 16 15 27 28 23 28 -4 0 2 7 13 15 10 8 16 15 12 15 -4 0 -3 12 3
28 31 79 10 161 -59 230 -24 23 -47 42 -51 42 -14 0 -61 25 -61 33 0 4 -18 7
-39 7 -22 0 -42 4 -45 8 -5 9 -67 9 -82 -1 -6 -3 -31 -7 -57 -8 -26 -2 -47 -5
-47 -8 0 -10 -53 -31 -79 -31 -13 0 -22 -3 -18 -6 7 -8 -17 -34 -32 -34 -6 0
-11 -4 -11 -10 0 -5 -11 -10 -25 -10 -14 0 -25 -4 -25 -10 0 -5 -7 -10 -16
-10 -8 0 -13 -4 -10 -9 5 -7 -71 -51 -89 -51 -2 0 -37 -15 -77 -34 -40 -18
-89 -40 -109 -49 -19 -9 -66 -30 -105 -47 -166 -76 -336 -121 -454 -121 -74
-1 -150 11 -150 22 0 5 -7 9 -16 9 -8 0 -12 5 -9 10 4 6 -6 10 -22 10 -22 0
-25 2 -13 10 12 8 10 10 -10 10 -28 1 -63 23 -53 33 3 4 -3 7 -15 7 -12 0 -22
4 -22 9 0 5 -6 16 -14 23 -29 30 -50 85 -52 141 -1 31 2 60 7 63 5 3 9 14 9
25 0 10 3 19 8 19 4 0 30 21 57 46 66 59 59 54 144 103 78 46 132 58 241 54
30 -1 90 -2 132 -3 43 -2 76 -5 74 -9 -2 -3 12 -7 32 -8 19 -1 38 -7 42 -14 6
-8 9 -8 13 2 4 10 6 10 6 2 1 -8 16 -13 40 -13 22 0 43 -4 46 -10 3 -5 19 -10
36 -10 16 0 29 -4 29 -8 0 -5 23 -15 50 -22 35 -10 46 -16 38 -23 -9 -6 -8 -7
4 -3 9 2 31 1 47 -4 36 -10 40 -1 11 25 -11 10 -22 26 -25 36 -4 11 -13 19
-21 19 -8 0 -12 5 -9 10 3 6 -1 10 -9 10 -8 0 -18 9 -21 20 -3 11 -11 20 -16
20 -6 0 -7 5 -4 10 3 6 0 10 -8 10 -8 0 -20 14 -27 30 -7 17 -15 30 -19 30
-11 0 -48 84 -61 137 -10 46 -9 63 5 123 11 47 30 88 38 83 6 -3 7 -1 3 5 -8
14 61 92 82 92 8 0 12 3 9 7 -8 7 56 53 75 53 7 0 21 7 31 15 11 7 26 11 35 8
10 -4 13 -2 8 5 -6 11 22 17 72 15 6 -1 12 3 12 8 0 13 227 11 235 -1 3 -5 24
-10 45 -10 21 0 42 -4 45 -10 3 -5 15 -10 26 -10 10 0 19 -5 19 -10 0 -6 6
-10 13 -9 28 3 58 -2 53 -9 -2 -4 5 -9 16 -9 12 -1 24 -6 27 -10 3 -4 13 -9
21 -11 8 -2 17 -8 18 -13 2 -5 10 -9 18 -9 17 0 53 -20 74 -40 8 -9 28 -21 43
-28 15 -7 25 -17 22 -22 -3 -6 -1 -10 5 -10 6 0 8 -5 4 -12 -4 -6 -3 -8 3 -5
16 10 125 -86 163 -142 14 -21 34 -48 59 -77 5 -7 7 -15 4 -18 -4 -3 0 -6 7
-6 7 0 11 -3 7 -6 -3 -4 1 -13 9 -21 8 -9 13 -22 10 -29 -3 -7 -1 -16 4 -19 6
-4 10 -15 10 -26 0 -10 5 -19 12 -19 6 0 8 -3 5 -7 -4 -3 -3 -11 3 -18 35 -42
34 -465 -2 -465 -5 0 -6 -4 -3 -10 3 -5 -1 -23 -10 -40 -8 -16 -16 -33 -16
-37 -3 -19 -21 -58 -30 -64 -9 -5 -15 -24 -18 -51 -1 -5 -8 -8 -17 -8 -8 0
-12 -4 -9 -10 3 -5 -6 -19 -20 -32 -14 -12 -25 -30 -25 -40 0 -12 -7 -18 -22
-18 -12 0 -19 -3 -15 -6 3 -4 1 -12 -6 -20 -26 -29 -33 -39 -34 -49 0 -5 -11
-16 -24 -22 -13 -7 -20 -13 -16 -13 4 0 2 -6 -5 -14 -7 -8 -16 -12 -20 -9 -5
2 -8 -3 -8 -11 0 -15 -13 -21 -35 -16 -5 1 -7 -1 -4 -5 11 -11 -37 -55 -59
-55 -14 0 -20 -5 -16 -14 5 -13 -29 -33 -49 -28 -4 1 -6 -1 -6 -5 3 -21 -4
-29 -33 -42 -18 -8 -36 -19 -39 -24 -4 -5 -42 -8 -85 -6 -186 8 -1080 -4
-1090 -14 -4 -4 -12 -7 -18 -7 -6 0 -4 5 4 10 13 8 12 10 -2 10 -10 0 -18 -4
-18 -10 0 -5 -37 -9 -86 -8 -51 0 -80 4 -72 9 9 6 4 8 -14 7 -15 -1 -24 -6
-21 -11 3 -5 -24 -7 -61 -5 -36 1 -66 0 -66 -3 0 -4 -10 -5 -22 -5 -13 1 -33
-1 -44 -5 -12 -4 -61 -9 -110 -10 -49 -1 -99 -7 -112 -12 -16 -8 -26 -7 -34 1
-7 7 -17 12 -23 12 -5 0 -3 -5 5 -10 10 -7 -9 -10 -63 -10 -50 0 -76 -4 -72
-10 5 -8 -46 -14 -81 -9 -4 0 -10 -4 -13 -9 -3 -6 -26 -12 -51 -14 -25 -2 -50
-7 -55 -10 -6 -3 -28 -7 -50 -9 -22 -1 -46 -8 -54 -13 -12 -9 -13 -8 -6 4 6
12 5 13 -6 3 -7 -7 -28 -13 -45 -13 -18 0 -35 -4 -38 -9 -3 -5 -16 -11 -28
-14 -13 -3 -49 -12 -82 -21 -32 -9 -69 -17 -82 -18 -13 -1 -24 -5 -24 -8 0 -6
-147 -55 -165 -55 -5 0 -12 -3 -15 -6 -3 -3 -48 -22 -100 -43 -87 -34 -226
-106 -207 -106 5 0 59 22 120 49 136 60 265 104 284 97 8 -3 12 -2 9 2 -3 5
25 15 62 22 37 8 74 16 82 18 8 2 38 6 65 9 28 3 55 9 60 14 6 4 37 9 68 11
31 2 57 6 57 10 0 5 29 8 65 8 37 0 65 4 65 10 0 6 17 10 38 10 20 0 55 5 77
10 28 6 44 5 54 -3 12 -9 13 -9 7 1 -4 6 -2 12 3 12 6 0 11 -6 11 -12 0 -9 3
-10 8 -2 4 6 31 12 61 13 29 1 61 5 70 10 9 5 78 11 154 13 75 3 140 7 144 11
10 10 305 8 360 -2 26 -6 74 -12 106 -15 32 -3 104 -13 160 -21 56 -8 134 -19
172 -25 139 -19 161 -22 215 -31 30 -5 69 -10 85 -10 27 0 25 -2 -17 -17 -26
-9 -50 -20 -54 -24 -4 -5 -18 -8 -31 -8 -13 0 -23 -4 -23 -10 0 -5 -16 -10
-36 -10 -20 0 -48 -9 -63 -19 -14 -11 -44 -21 -66 -22 -22 -2 -46 -9 -53 -16
-8 -7 -17 -11 -22 -8 -5 3 -11 1 -15 -5 -3 -5 -19 -10 -35 -10 -16 0 -32 -4
-35 -10 -3 -5 -22 -10 -41 -10 -20 0 -34 -5 -34 -12 0 -9 -4 -8 -10 2 -6 10
-10 11 -10 3 0 -8 -13 -13 -30 -13 -16 0 -30 -4 -30 -10 0 -5 -20 -10 -44 -10
-25 0 -48 -4 -51 -10 -3 -5 -21 -10 -39 -10 -17 0 -36 -4 -41 -9 -12 -11 -73
-20 -173 -27 -46 -4 -70 -9 -66 -16 4 -7 -6 -9 -29 -6 -20 2 -33 0 -31 -4 3
-4 2 -8 -3 -9 -4 0 -46 -5 -93 -10 -47 -5 -134 -12 -195 -14 -275 -12 -335
-25 -188 -41 35 -3 63 -10 63 -14 0 -7 156 -14 228 -11 12 0 22 -3 22 -8 0 -5
16 -9 35 -9 21 0 32 4 29 10 -4 6 1 6 13 -1 11 -6 23 -7 27 -4 10 11 37 12 30
2 -3 -5 2 -9 11 -9 10 0 14 5 9 13 -6 10 -4 10 7 0 14 -14 33 -18 25 -5 -2 4
28 9 67 11 79 3 142 8 142 11 0 4 48 9 110 11 39 1 75 6 81 11 7 5 16 8 20 7
5 -1 41 -1 79 0 49 1 66 4 55 11 -11 7 -6 10 20 10 20 0 40 4 45 9 10 9 55 17
150 27 28 3 70 14 94 25 24 12 61 21 82 22 20 1 35 5 32 10 -2 4 12 7 31 7 20
0 36 5 36 10 0 6 8 10 17 10 23 0 75 17 156 51 37 16 78 29 92 29 14 0 25 3
25 8 0 12 52 32 82 32 15 0 28 5 28 10 0 17 40 12 321 -44 328 -65 417 -86
529 -122 47 -15 87 -28 90 -29 62 -14 175 -105 186 -150 11 -45 -1 -128 -28
-185 -40 -87 -115 -180 -144 -180 -14 0 -22 -4 -19 -10 3 -5 0 -10 -9 -10 -8
0 -16 -5 -18 -12 -6 -16 -22 -7 -103 57 -38 30 -99 70 -135 89 -71 37 -259
108 -330 125 -120 28 -178 40 -215 46 -22 3 -53 7 -70 10 -205 32 -418 49
-720 60 -71 3 -140 7 -152 9 -75 16 -596 27 -620 14 -4 -3 -35 -6 -68 -7 -33
-1 -91 -7 -130 -12 -38 -6 -86 -12 -105 -14 -19 -3 -46 -7 -60 -10 -14 -3 -51
-10 -82 -15 -141 -26 -360 -98 -498 -164 -139 -66 -220 -117 -336 -212 -53
-42 -84 -55 -84 -34 0 6 -16 10 -36 10 -22 0 -33 4 -29 11 4 6 1 9 -6 7 -21
-4 -99 24 -93 33 3 5 -4 9 -14 9 -24 0 -102 40 -102 52 0 4 -9 8 -20 8 -11 0
-20 4 -20 8 0 5 -11 15 -25 22 -13 7 -22 17 -19 22 3 4 -1 8 -8 8 -17 1 -58
35 -58 49 0 6 -4 11 -8 11 -5 0 -16 15 -24 34 -20 42 -16 157 7 192 20 30 19
55 -1 29 -8 -11 -25 -31 -37 -45 -11 -14 -20 -26 -19 -27 7 -9 0 -23 -13 -23
-11 0 -14 -7 -11 -25 3 -13 6 -53 7 -87 2 -35 7 -68 13 -75 29 -33 34 -41 29
-47 -4 -3 -1 -6 6 -6 7 0 9 -4 6 -10 -3 -5 2 -10 12 -10 15 0 16 -2 3 -10 -13
-8 -12 -10 3 -10 20 0 89 -65 80 -74 -4 -3 1 -6 10 -6 9 0 17 -4 17 -10 0 -5
6 -10 14 -10 8 0 16 -4 18 -9 3 -10 51 -38 148 -87 30 -16 57 -32 58 -36 2 -4
15 -8 28 -8 13 0 24 -3 24 -7 0 -11 50 -33 71 -33 10 0 20 -4 23 -8 3 -4 28
-14 55 -22 28 -7 51 -17 51 -22 0 -4 16 -8 35 -8 19 0 35 -4 35 -10 0 -5 16
-10 36 -10 24 0 33 -4 28 -12 -5 -8 -2 -9 10 -5 10 4 19 1 23 -9 5 -13 7 -13
14 -2 5 8 9 8 9 2 0 -7 23 -12 57 -13 31 0 59 -4 62 -8 3 -5 24 -10 46 -11 22
-2 42 -8 43 -13 2 -5 26 -9 53 -9 28 0 48 -4 45 -8 -2 -4 3 -8 12 -8 92 -4
138 -9 142 -15 3 -4 30 -9 60 -10 30 -1 58 -7 62 -13 5 -7 8 -6 8 3 0 11 3 11
17 0 15 -12 16 -12 8 1 -6 12 -5 13 6 3 7 -8 38 -13 71 -13 32 0 67 -6 78 -12
17 -11 22 -10 30 2 6 10 10 11 10 3 0 -10 42 -13 175 -13 96 0 175 -4 175 -8
0 -9 498 -7 569 2 25 3 101 6 170 7 69 1 135 5 147 9 12 5 69 10 127 11 58 2
104 6 101 11 -3 4 36 8 86 8 58 0 89 4 85 10 -4 6 15 10 49 10 31 0 56 3 56 8
0 4 26 8 57 10 32 2 60 7 64 13 3 5 26 11 51 12 25 1 44 5 41 10 -2 4 18 7 46
7 27 0 53 5 56 10 3 6 17 10 31 10 13 0 24 5 24 10 0 6 17 10 38 10 21 0 42 4
47 9 6 5 21 11 35 13 14 1 28 6 31 10 3 5 17 9 31 10 15 1 24 6 22 10 -3 4 6
8 20 8 14 0 28 5 31 10 3 6 19 10 35 10 15 0 30 5 32 10 2 6 13 12 25 13 12 0
19 5 17 9 -3 4 8 8 24 8 16 0 37 9 47 20 10 11 27 20 37 20 11 0 16 5 13 10
-3 6 4 10 17 10 26 1 61 24 51 33 -3 4 3 7 15 7 12 0 22 5 22 10 0 6 7 10 15
10 8 0 15 5 15 10 0 6 7 10 15 10 8 0 15 6 15 13 0 9 2 9 8 1 5 -9 10 -8 20 2
7 7 12 16 12 19 -1 20 1 25 8 25 10 0 10 -42 1 -50 -6 -4 -49 -199 -64 -285
-3 -16 -18 -140 -35 -275 -43 -350 -49 -394 -71 -495 -51 -233 -123 -488 -139
-493 -6 -2 -10 -12 -10 -23 0 -10 -5 -19 -11 -19 -5 0 -7 -5 -4 -10 3 -6 1
-10 -5 -10 -6 0 -8 -5 -5 -10 3 -5 2 -10 -3 -10 -5 0 -15 -19 -22 -42 -7 -24
-20 -49 -29 -56 -8 -6 -11 -12 -6 -12 4 0 -2 -9 -14 -19 -12 -11 -21 -25 -20
-33 3 -26 -1 -39 -11 -33 -5 3 -10 -1 -10 -9 0 -9 -4 -16 -10 -16 -5 0 -9 -3
-9 -7 4 -22 -3 -41 -18 -59 -10 -11 -19 -26 -21 -34 -2 -8 -8 -16 -13 -18 -5
-2 -9 -10 -9 -18 0 -8 -7 -17 -15 -20 -8 -4 -15 -13 -15 -21 0 -8 -5 -11 -12
-7 -6 4 -8 3 -5 -3 4 -6 -2 -21 -13 -33 -11 -13 -20 -26 -20 -30 0 -13 -37
-50 -44 -43 -3 3 -6 0 -6 -8 0 -21 -50 -79 -68 -79 -8 0 -12 -3 -9 -7 9 -8
-63 -74 -73 -68 -5 3 -12 0 -16 -6 -5 -8 -3 -9 7 -4 8 4 4 -2 -8 -14 -12 -11
-28 -21 -36 -21 -7 0 -23 -9 -35 -20 -12 -11 -28 -20 -37 -20 -8 0 -15 -4 -15
-10 0 -5 -7 -10 -15 -10 -8 0 -15 -4 -15 -10 0 -5 -6 -10 -14 -10 -8 0 -16 -4
-18 -10 -1 -5 -15 -11 -30 -12 -16 -1 -28 -6 -28 -10 0 -4 -11 -8 -25 -8 -14
0 -25 -4 -25 -10 0 -5 -11 -10 -25 -10 -14 0 -25 -4 -25 -10 0 -5 -18 -10 -41
-10 -24 0 -38 -4 -34 -10 4 -6 -12 -10 -39 -10 -25 0 -46 -4 -46 -10 0 -6 -26
-10 -59 -10 -33 0 -63 -4 -66 -10 -3 -5 -12 -10 -18 -10 -7 0 -6 4 3 10 13 8
13 10 -2 10 -9 0 -18 -5 -20 -11 -2 -5 -18 -11 -35 -11 -18 -1 -30 -4 -28 -8
2 -4 -2 -7 -10 -7 -8 0 -12 3 -10 7 2 4 -2 7 -10 7 -8 0 -12 -4 -9 -9 3 -4
-17 -8 -43 -8 -27 0 -55 -6 -62 -13 -11 -9 -13 -9 -7 1 5 8 0 12 -16 12 -18 0
-20 -2 -8 -10 9 -6 10 -10 3 -10 -6 0 -15 5 -18 10 -5 8 -11 8 -19 1 -7 -6
-27 -12 -45 -13 -18 -1 -35 -6 -38 -11 -3 -5 -9 -3 -14 4 -6 10 -9 11 -9 2 0
-9 -23 -13 -80 -13 -57 0 -80 -4 -80 -12 0 -9 -4 -8 -10 2 -5 8 -10 10 -10 4
0 -6 -15 -14 -32 -18 -186 -35 -216 -46 -123 -46 68 0 66 -8 -7 -25 l-53 -12
45 -6 c25 -4 72 -9 105 -11 108 -10 289 -27 325 -32 70 -9 437 -12 515 -3 334
36 588 138 760 305 60 58 157 192 171 236 3 13 10 25 13 28 10 7 57 134 80
215 19 66 33 127 82 340 11 50 26 101 32 114 l12 23 6 -23 c5 -19 9 -10 19 38
7 35 17 63 22 63 5 0 6 5 3 10 -3 6 -1 10 4 10 6 0 11 6 11 13 0 22 24 67 37
67 6 0 15 9 18 20 3 11 14 20 22 20 9 0 14 3 10 6 -14 15 94 94 128 94 8 0 15
3 15 8 0 4 15 13 33 20 17 7 40 18 49 23 10 5 29 9 42 9 14 0 28 5 31 10 3 5
15 10 26 10 10 0 19 5 19 10 0 6 16 10 35 10 19 0 35 5 35 10 0 6 10 10 23 10
13 0 27 4 33 9 5 5 20 11 34 13 14 1 27 6 30 10 3 4 22 8 42 10 20 1 34 6 32
10 -3 4 9 8 25 8 17 0 31 5 31 10 0 6 14 10 30 10 17 0 30 5 30 10 0 6 11 10
25 10 14 0 25 5 25 10 0 6 9 10 20 10 11 0 20 5 20 10 0 6 6 10 13 10 7 0 23
9 35 20 12 11 31 20 43 20 12 0 20 3 16 6 -7 7 38 54 53 54 5 0 10 5 10 10 0
6 7 10 16 10 8 0 12 4 9 10 -3 6 1 10 9 10 9 0 18 11 22 25 3 14 12 29 19 33
15 9 88 152 78 152 -5 0 -2 4 5 8 32 21 35 302 2 322 -5 3 -10 12 -12 20 -2 8
-6 19 -11 25 -33 45 -54 85 -49 91 4 4 2 4 -4 1 -6 -3 -16 4 -23 16 -6 12 -36
38 -66 57 -30 19 -55 38 -55 43 0 4 -9 7 -20 7 -11 0 -20 5 -20 10 0 6 -9 10
-21 10 -11 0 -17 5 -14 10 4 6 -7 10 -24 10 -17 0 -31 4 -31 9 0 5 -19 11 -42
14 -24 3 -59 8 -78 12 -19 3 -42 6 -50 7 -8 0 -21 6 -29 12 -11 8 -13 8 -7 -1
4 -7 2 -13 -3 -13 -6 0 -11 6 -11 13 0 9 -2 9 -9 -1 -4 -7 -24 -14 -44 -15
-21 -1 -37 -5 -37 -9 0 -5 -20 -8 -45 -8 -25 0 -45 -4 -45 -10 0 -5 -13 -10
-30 -10 -16 0 -30 -4 -30 -10 0 -5 -9 -10 -20 -10 -11 0 -20 -4 -20 -10 0 -5
-7 -10 -15 -10 -8 0 -24 -9 -35 -20 -11 -11 -29 -20 -40 -20 -11 0 -20 -4 -20
-8 0 -16 -37 -52 -54 -52 -9 0 -16 -4 -16 -10 0 -5 -5 -10 -11 -10 -7 0 -9 10
-4 28 14 56 16 69 20 162 5 130 15 234 26 273 40 141 -32 300 -186 407 -143
99 -377 187 -651 243 l-110 23 30 32 c17 18 37 32 45 32 8 0 12 3 8 6 -9 9 19
34 37 34 9 0 15 3 14 8 -1 8 13 45 21 52 3 3 19 25 36 49 16 24 35 45 42 48 7
3 10 9 7 14 -3 5 6 20 20 34 15 14 26 32 26 40 0 7 7 21 16 29 8 9 13 16 9 16
-4 0 1 7 9 16 9 8 16 24 16 35 0 11 9 47 20 80 40 117 53 224 53 414 -1 122
-4 180 -12 183 -6 2 -8 8 -5 13 3 6 1 22 -5 37 -6 15 -12 43 -14 63 -2 20 -11
44 -20 54 -9 9 -17 26 -17 38 0 12 -11 35 -25 51 -14 16 -25 37 -25 48 0 10
-7 18 -15 18 -9 0 -18 12 -21 30 -4 17 -13 30 -20 30 -8 0 -14 4 -14 10 0 5
-15 25 -34 44 -18 20 -31 38 -28 41 3 3 -2 5 -10 5 -9 0 -28 14 -41 30 -14 17
-30 30 -35 30 -6 0 -22 14 -35 30 -14 17 -31 30 -38 30 -6 0 -20 9 -30 21 -9
11 -20 20 -24 19 -13 -4 -64 23 -59 31 3 5 -4 9 -16 9 -12 0 -18 5 -15 10 4 6
-5 10 -19 10 -14 0 -26 5 -26 10 0 6 -11 10 -25 10 -14 0 -25 4 -25 8 0 4 -12
9 -27 10 -16 1 -29 7 -31 12 -2 6 -15 10 -28 10 -14 0 -22 4 -19 10 4 6 -13
10 -44 10 -27 0 -53 5 -56 10 -8 13 -362 14 -367 0z m1695 -2821 c-8 -28 -12
-23 -11 12 1 17 4 25 8 18 4 -6 5 -20 3 -30z m291 -200 c-3 -5 -16 -9 -29 -9
-12 0 -26 -7 -29 -16 -4 -9 -9 -14 -12 -11 -3 3 -18 -8 -33 -24 -16 -16 -31
-29 -35 -29 -11 0 -40 -32 -69 -77 -15 -24 -32 -43 -38 -43 -5 0 -7 -4 -4 -10
3 -5 1 -10 -4 -10 -6 0 -11 -9 -11 -20 0 -11 -5 -20 -10 -20 -15 0 -10 131 6
147 7 7 15 13 17 13 3 0 19 14 37 30 18 17 38 30 46 30 8 0 14 5 14 10 0 6 7
10 15 10 8 0 15 5 15 10 0 6 14 10 31 10 20 0 28 4 23 12 -4 6 -3 9 2 6 5 -3
18 -2 29 2 23 8 47 2 39 -11z m479 -154 c34 -14 98 -65 81 -65 -4 0 3 -9 16
-20 13 -11 20 -20 16 -20 -4 0 0 -7 8 -16 9 -8 14 -20 11 -25 -4 -5 -1 -9 5
-9 6 0 9 -4 5 -9 -3 -5 -1 -12 4 -15 26 -16 -11 -196 -40 -196 -6 0 -7 -4 -4
-10 3 -5 1 -10 -5 -10 -6 0 -15 -12 -20 -26 -6 -14 -14 -22 -20 -19 -5 3 -10
1 -10 -6 0 -16 -76 -85 -111 -101 -16 -7 -29 -16 -29 -19 0 -3 -19 -12 -42
-19 -24 -7 -47 -17 -52 -22 -6 -4 -21 -8 -34 -8 -13 0 -20 -4 -17 -10 4 -6 -5
-10 -20 -10 -15 0 -24 -4 -20 -10 3 -5 0 -10 -8 -10 -14 0 -107 -34 -139 -51
-10 -5 -29 -9 -43 -9 -14 0 -25 -4 -25 -8 0 -4 -10 -8 -22 -9 -11 -1 -24 -6
-27 -11 -10 -16 -49 -32 -76 -32 -15 0 -24 -4 -20 -10 3 -5 -1 -10 -9 -10 -9
0 -16 -4 -16 -10 0 -5 -10 -10 -21 -10 -12 0 -30 -9 -40 -21 -10 -12 -29 -22
-43 -23 -13 0 -23 -3 -21 -5 6 -5 -63 -71 -75 -71 -13 0 -13 1 10 60 11 27 18
50 15 50 -2 0 2 18 10 39 7 22 16 54 19 73 3 18 10 60 16 93 6 33 13 107 16
165 6 116 10 125 83 204 77 84 113 115 182 160 64 42 176 93 228 103 111 22
209 17 284 -12z"/>
<path d="M1905 2674 c-11 -3 -47 -9 -80 -16 -105 -20 -272 -94 -383 -170 -195
-134 -317 -297 -345 -463 -24 -140 43 -261 183 -332 30 -15 58 -32 62 -38 4
-5 8 -7 8 -3 0 4 24 -4 53 -17 28 -14 63 -25 77 -24 22 0 21 2 -14 20 -59 32
-99 76 -142 159 -34 66 -39 83 -39 143 0 47 4 70 14 76 8 5 11 16 8 24 -3 9
-2 17 3 19 5 2 10 10 12 18 2 8 5 17 9 20 3 3 15 22 28 43 12 20 27 37 33 37
5 0 16 7 24 15 9 8 13 15 9 15 -4 0 0 7 9 15 8 8 19 15 25 15 6 0 11 5 11 10
0 6 9 10 21 10 11 0 17 5 14 10 -3 6 -1 10 6 10 6 0 19 8 28 18 21 22 57 42
76 42 8 0 15 5 15 10 0 6 8 10 18 10 10 0 22 4 28 9 15 15 154 50 244 61 46 5
134 10 195 9 113 0 311 -20 301 -29 -3 -3 7 -7 22 -8 15 -1 29 -7 30 -12 2 -6
12 -10 23 -10 10 0 19 -4 19 -10 0 -5 7 -10 16 -10 19 0 78 -40 70 -47 -3 -3
5 -14 17 -24 12 -10 18 -18 13 -19 -4 0 -2 -10 6 -22 8 -13 13 -30 13 -38 -1
-8 2 -25 7 -37 5 -15 4 -23 -4 -23 -6 0 -9 -3 -6 -6 4 -3 2 -20 -3 -37 -6 -18
-12 -40 -14 -50 -7 -30 -38 -97 -46 -97 -3 0 -12 -13 -19 -30 -7 -16 -19 -30
-26 -30 -8 0 -13 -6 -11 -12 1 -7 -3 -12 -10 -11 -7 2 -10 -3 -7 -11 3 -8 -10
-30 -28 -49 -18 -19 -49 -53 -68 -76 -19 -23 -40 -41 -47 -41 -7 0 -13 -6 -13
-14 0 -7 -25 -39 -55 -71 -30 -31 -55 -61 -55 -66 0 -5 -10 -9 -22 -10 -13 0
-18 -3 -11 -6 9 -3 6 -12 -10 -28 -38 -42 -46 -53 -40 -59 4 -3 -2 -6 -12 -6
-10 0 -16 -3 -12 -6 3 -4 0 -13 -8 -21 -8 -8 -15 -23 -15 -34 0 -10 -5 -19
-11 -19 -5 0 -7 -4 -4 -10 3 -5 2 -10 -3 -10 -6 0 -13 -16 -16 -35 -4 -19 -14
-39 -24 -44 -14 -8 -17 -30 -19 -142 -2 -83 1 -137 8 -145 6 -7 8 -18 4 -24
-3 -5 -2 -10 4 -10 5 0 8 -9 6 -20 -2 -11 0 -18 5 -15 11 7 20 -7 22 -39 1
-14 5 -26 8 -26 7 0 40 -66 40 -80 0 -6 9 -19 20 -30 11 -11 20 -27 20 -35 0
-8 5 -15 11 -15 5 0 7 -4 4 -10 -3 -5 0 -10 8 -10 20 0 47 -33 47 -58 0 -15 6
-22 20 -22 18 0 25 -10 21 -32 0 -5 4 -8 10 -8 6 0 17 -7 25 -15 9 -8 13 -15
9 -15 -4 0 0 -7 9 -15 8 -8 17 -15 20 -15 12 0 46 -35 46 -47 0 -7 8 -13 18
-13 10 0 28 -10 39 -22 29 -33 62 -58 74 -58 5 0 7 -4 4 -10 -3 -5 1 -10 9
-10 9 0 16 -4 16 -10 0 -5 8 -10 18 -10 10 0 28 -9 40 -20 12 -11 27 -20 34
-20 17 -1 49 -25 42 -32 -2 -3 8 -6 23 -5 15 0 29 -6 31 -12 2 -6 10 -11 18
-11 8 0 14 -5 14 -10 0 -6 3 -9 8 -9 19 3 33 -2 27 -11 -4 -6 8 -10 29 -10 20
0 36 -4 36 -10 0 -5 11 -10 24 -10 14 0 28 -4 31 -10 3 -5 17 -10 31 -10 14 0
23 -4 20 -8 -2 -4 10 -9 27 -10 39 -3 97 -23 97 -34 0 -4 3 -7 8 -7 28 5 92
-3 88 -10 -3 -5 29 -9 72 -10 42 -1 79 -6 80 -11 5 -14 729 -14 737 0 3 5 13
10 21 10 8 0 13 -4 10 -8 -3 -5 1 -9 9 -9 8 0 13 3 10 5 -3 3 5 10 18 17 14 7
24 8 29 1 4 -6 11 -6 20 2 8 6 37 12 66 13 29 2 52 6 52 10 0 9 55 18 150 26
41 3 77 9 80 14 3 4 22 9 42 11 20 1 34 6 32 10 -5 7 26 12 63 11 7 -1 10 3 7
8 -5 8 20 13 68 13 9 0 15 3 12 8 -3 4 11 8 30 8 22 0 36 5 36 13 0 8 4 7 10
-3 6 -10 10 -11 10 -2 0 6 9 12 20 12 11 0 20 5 20 10 0 6 21 10 46 10 25 0
43 4 40 9 -7 11 38 31 69 31 14 0 25 5 25 10 0 6 16 10 36 10 21 0 33 4 29 10
-3 6 0 10 8 10 9 0 35 10 59 21 23 12 54 26 68 32 14 5 33 13 42 18 10 5 25 9
33 9 8 0 15 5 15 10 0 6 6 10 14 10 8 0 16 4 18 10 2 5 15 11 30 12 15 1 25 5
23 8 -2 4 11 13 30 20 19 8 35 17 35 22 0 4 9 8 20 8 11 0 20 5 20 10 0 6 6
10 14 10 8 0 16 5 18 11 2 5 11 11 20 12 9 2 34 15 55 30 22 15 49 27 61 27
15 0 22 6 22 20 0 15 7 20 24 20 16 0 27 7 31 19 3 11 19 26 35 33 17 7 30 16
30 20 0 5 6 8 14 8 7 0 16 9 19 20 3 11 13 20 22 20 9 0 23 7 31 15 9 8 12 15
8 15 -16 0 32 29 48 30 10 0 17 3 17 8 -4 22 3 32 21 32 11 0 19 3 18 8 -4 15
27 52 44 52 10 0 18 6 18 13 0 7 8 20 18 28 31 29 60 67 55 73 -4 3 1 6 10 6
10 0 17 8 17 20 0 18 11 25 33 21 5 -1 6 3 2 9 -3 5 -2 10 3 10 5 0 17 18 27
40 10 22 24 40 32 40 7 0 14 5 14 10 5 35 20 70 30 70 6 0 8 4 5 9 -4 5 -3 11
2 13 11 4 56 79 59 97 1 8 7 17 14 22 7 4 13 21 14 38 1 16 7 36 14 44 14 17
15 377 1 377 -9 0 -32 62 -29 76 1 5 -6 27 -16 49 -55 125 -192 256 -330 315
-34 14 -43 16 -39 5 3 -8 14 -17 24 -20 16 -5 80 -60 80 -69 0 -2 -17 -6 -38
-10 -22 -3 -51 -15 -65 -26 -14 -11 -30 -20 -36 -20 -5 0 -15 -19 -21 -42 -6
-24 -13 -49 -15 -56 -3 -8 2 -20 10 -29 8 -8 13 -19 10 -24 -4 -5 -1 -9 5 -9
6 0 9 -4 6 -8 -6 -11 69 -54 78 -45 3 4 -3 16 -15 29 -26 28 -24 100 3 98 10
-1 14 4 11 12 -4 10 4 14 27 14 18 0 29 4 25 10 -3 6 1 10 9 10 8 0 18 -4 21
-10 3 -5 13 -10 21 -10 24 0 94 -75 100 -106 3 -16 8 -31 12 -34 13 -9 17 -35
17 -105 0 -54 -7 -86 -28 -139 -28 -70 -77 -151 -116 -196 -75 -85 -143 -150
-246 -235 -33 -28 -62 -52 -65 -55 -6 -6 -42 -31 -160 -111 -333 -226 -662
-373 -1070 -478 -149 -39 -207 -50 -350 -72 -36 -5 -78 -11 -95 -14 -30 -5
-90 -10 -265 -24 -384 -31 -942 -13 -1102 35 -10 3 -28 7 -41 10 -47 8 -175
53 -208 73 -19 11 -49 28 -68 38 -50 25 -157 128 -201 193 -107 158 -142 400
-73 498 10 13 23 32 28 41 6 9 27 32 47 52 20 21 34 40 31 43 -4 3 1 6 10 6 9
0 17 6 17 14 0 8 11 23 25 34 13 11 21 22 18 26 -3 3 0 6 8 6 8 0 22 14 31 30
9 17 24 30 33 30 8 0 15 4 15 9 0 9 62 82 125 146 61 63 152 171 173 206 29
49 52 142 52 213 0 141 -118 285 -300 368 -107 49 -140 59 -305 94 -34 7 -330
13 -360 8z"/>
<path d="M520 1849 c-138 -14 -250 -63 -339 -148 -69 -66 -112 -135 -149 -240
-23 -67 -26 -91 -26 -206 0 -153 17 -226 74 -313 72 -111 155 -170 283 -202
90 -22 108 -30 101 -41 -3 -5 -2 -8 3 -7 14 5 112 -25 108 -33 -3 -4 27 -7 66
-6 38 0 72 4 75 9 3 4 25 8 50 8 25 0 44 5 44 11 0 6 6 9 13 6 13 -5 67 23 67
35 0 4 9 8 20 8 11 0 20 5 20 10 0 6 7 10 15 10 8 0 15 5 15 10 0 6 9 10 19
10 10 0 22 7 25 16 3 8 11 12 16 9 6 -4 9 -1 8 5 -2 7 6 17 17 23 11 7 27 20
36 29 9 10 19 15 23 13 3 -3 4 -2 1 2 -6 7 24 43 36 43 5 0 22 13 37 30 16 16
36 30 45 30 9 0 19 9 22 20 3 11 11 20 16 20 5 0 19 9 31 20 12 11 30 20 40
20 10 0 18 5 18 10 0 6 9 10 20 10 11 0 20 5 20 10 0 6 14 10 30 10 17 0 30 5
30 10 0 6 5 10 11 10 5 0 8 -4 5 -8 -3 -5 1 -9 9 -9 8 0 12 4 9 9 -3 4 0 8 5
8 6 0 11 -4 11 -10 0 -5 5 -10 11 -10 5 0 8 4 5 8 -3 5 1 9 9 9 8 0 12 -4 9
-9 -3 -4 10 -8 28 -8 22 0 39 -7 48 -20 8 -11 20 -20 26 -20 6 0 17 -13 24
-30 7 -17 17 -30 22 -30 5 0 6 -4 3 -10 -3 -5 -2 -10 3 -10 27 0 56 -152 55
-289 0 -66 2 -89 9 -77 6 10 11 23 13 29 1 7 5 19 8 27 4 8 8 24 10 35 1 11 6
26 10 33 9 14 12 174 4 209 -3 11 -13 35 -21 52 -9 16 -16 37 -16 45 0 8 -7
22 -16 30 -8 9 -13 16 -10 16 5 0 -3 11 -51 66 -10 11 -33 27 -50 35 -18 7
-33 17 -33 20 0 7 -71 18 -125 19 -54 2 -155 -13 -155 -21 0 -5 -12 -9 -26 -9
-14 0 -23 -4 -19 -10 4 -6 -5 -10 -19 -10 -14 0 -26 -4 -26 -10 0 -5 -6 -10
-13 -10 -7 0 -19 -9 -27 -20 -8 -11 -20 -20 -26 -20 -7 0 -15 -6 -17 -12 -4
-9 -6 -8 -6 2 -1 8 -10 0 -21 -17 -12 -21 -28 -33 -42 -33 -12 0 -19 -3 -15
-6 7 -8 -17 -34 -32 -34 -6 0 -11 -4 -11 -10 0 -5 -7 -10 -17 -10 -9 0 -14 -3
-10 -6 8 -9 -18 -34 -36 -34 -8 0 -29 -13 -47 -30 -18 -16 -36 -30 -41 -30 -5
0 -9 -4 -9 -10 0 -5 -7 -10 -15 -10 -8 0 -15 -4 -15 -10 0 -5 -6 -10 -14 -10
-8 0 -16 -5 -18 -12 -6 -17 -260 -18 -265 0 -3 6 -11 12 -19 12 -8 0 -22 9
-31 20 -10 11 -24 20 -31 20 -17 0 -43 25 -35 34 4 3 -1 6 -10 6 -10 0 -17 7
-17 15 0 9 -7 18 -15 21 -8 4 -12 10 -9 15 3 5 0 9 -6 9 -6 0 -9 4 -6 9 3 5
-2 11 -12 13 -11 3 -24 28 -38 74 -41 138 -17 354 49 437 64 81 98 107 175
133 87 30 263 46 276 25 4 -6 21 -11 37 -11 18 0 28 -4 24 -10 -4 -6 10 -10
34 -10 22 0 53 -5 68 -11 15 -6 39 -16 53 -21 14 -6 33 -14 42 -19 10 -5 27
-9 38 -9 14 0 20 -7 21 -22 0 -13 3 -17 6 -10 4 10 8 10 21 0 13 -11 14 -11 8
0 -6 11 -4 11 10 4 44 -24 117 -53 125 -50 8 3 -32 57 -84 110 -152 159 -438
253 -687 227z"/>
<path d="M5265 1740 c-3 -5 -13 -10 -21 -10 -8 0 -24 -9 -36 -20 -12 -11 -28
-20 -35 -20 -7 0 -13 -4 -13 -10 0 -5 -6 -10 -14 -10 -8 0 -18 -9 -21 -20 -3
-11 -13 -20 -21 -20 -20 0 -37 -18 -58 -57 -9 -18 -22 -36 -30 -40 -7 -4 -21
-25 -31 -45 -9 -21 -23 -38 -30 -38 -7 0 -16 -6 -19 -12 -3 -7 -4 -1 -1 15 6
30 -9 37 -23 10 -18 -34 -54 -148 -59 -183 -3 -19 -10 -46 -17 -60 -15 -31 -4
-79 21 -97 9 -7 41 -13 71 -13 l54 0 68 -73 c38 -41 88 -82 115 -96 59 -29
157 -38 222 -21 52 14 163 70 163 82 0 5 9 8 19 8 11 0 23 9 26 20 3 11 13 20
21 20 8 0 14 3 14 8 0 4 11 19 24 34 14 14 22 29 19 32 -4 3 -1 6 5 6 8 0 12
19 12 50 0 31 -4 50 -12 50 -6 0 -9 3 -5 6 7 8 -17 34 -32 34 -6 0 -25 9 -43
20 -20 12 -27 20 -16 20 9 0 18 4 20 9 2 6 27 11 56 12 28 2 52 6 52 11 0 4
13 8 29 8 17 0 33 5 36 10 5 8 -74 16 -107 11 -5 0 -8 4 -8 10 0 5 -5 7 -11 4
-14 -9 -141 4 -135 14 3 4 -1 8 -9 8 -8 0 -12 -4 -10 -8 3 -4 -10 -7 -27 -6
-29 2 -33 6 -34 31 -1 19 7 36 23 49 13 12 21 27 19 34 -3 7 -2 13 2 13 9 0 8
75 -2 118 -4 17 -12 32 -17 32 -6 0 -8 4 -5 9 3 5 -1 12 -9 15 -8 3 -14 11
-13 18 2 7 -7 14 -19 16 -13 2 -23 7 -23 11 0 12 -117 13 -125 1z"/>
</g>
</svg>
